<?xml version="1.0" encoding="UTF-8" standalone="no"?>
<!-- Created with Inkscape (http://www.inkscape.org/) -->

<svg
   width="232.70419mm"
   height="90.970436mm"
   viewBox="0 0 232.70419 90.970435"
   version="1.1"
   id="svg1"
   xml:space="preserve"
   xmlns:inkscape="http://www.inkscape.org/namespaces/inkscape"
   xmlns:sodipodi="http://sodipodi.sourceforge.net/DTD/sodipodi-0.dtd"
   xmlns="http://www.w3.org/2000/svg"
   xmlns:svg="http://www.w3.org/2000/svg"><sodipodi:namedview
     id="namedview1"
     pagecolor="#505050"
     bordercolor="#eeeeee"
     borderopacity="1"
     inkscape:showpageshadow="0"
     inkscape:pageopacity="0"
     inkscape:pagecheckerboard="0"
     inkscape:deskcolor="#505050"
     inkscape:document-units="mm"><inkscape:page
       x="0"
       y="0"
       width="232.70419"
       height="90.970436"
       id="page3"
       margin="0"
       bleed="0" /></sodipodi:namedview><defs
     id="defs1"><clipPath
       clipPathUnits="userSpaceOnUse"
       id="clipPath3-2"><path
         d="M 0,595.276 H 841.89 V 0 H 0 Z"
         transform="translate(-331.12261,-239.0189)"
         id="path3-4" /></clipPath><clipPath
       clipPathUnits="userSpaceOnUse"
       id="clipPath5-5"><path
         d="M 0,595.276 H 841.89 V 0 H 0 Z"
         transform="translate(-457.13521,-247.82911)"
         id="path5-5" /></clipPath><clipPath
       clipPathUnits="userSpaceOnUse"
       id="clipPath7-1"><path
         d="M 0,595.276 H 841.89 V 0 H 0 Z"
         transform="translate(-547.14112,-241.40471)"
         id="path7-7" /></clipPath><clipPath
       clipPathUnits="userSpaceOnUse"
       id="clipPath9-1"><path
         d="M 0,595.276 H 841.89 V 0 H 0 Z"
         transform="translate(-643.21822,-241.40471)"
         id="path9-1" /></clipPath><clipPath
       clipPathUnits="userSpaceOnUse"
       id="clipPath11-5"><path
         d="M 0,595.276 H 841.89 V 0 H 0 Z"
         transform="translate(-740.34172,-241.40471)"
         id="path11-2" /></clipPath><radialGradient
       fx="0"
       fy="0"
       cx="0"
       cy="0"
       r="1"
       gradientUnits="userSpaceOnUse"
       gradientTransform="matrix(-95.051262,-7.2053404,15.137495,-89.52388,172.92609,257.33133)"
       spreadMethod="pad"
       id="radialGradient15-7"><stop
         style="stop-opacity:1;stop-color:#4db0e7"
         offset="0"
         id="stop11-6" /><stop
         style="stop-opacity:1;stop-color:#4db0e7"
         offset="0.121526"
         id="stop12-1" /><stop
         style="stop-opacity:1;stop-color:#48a4e0"
         offset="0.46034"
         id="stop13-4" /><stop
         style="stop-opacity:1;stop-color:#272f67"
         offset="0.927083"
         id="stop14-2" /><stop
         style="stop-opacity:1;stop-color:#272f67"
         offset="1"
         id="stop15-3" /></radialGradient><radialGradient
       fx="0"
       fy="0"
       cx="0"
       cy="0"
       r="1"
       gradientUnits="userSpaceOnUse"
       gradientTransform="matrix(-82.31807,-20.403,28.332088,-78.625404,182.14616,322.67194)"
       spreadMethod="pad"
       id="radialGradient20-2"><stop
         style="stop-opacity:1;stop-color:#4db0e7"
         offset="0"
         id="stop16-2" /><stop
         style="stop-opacity:1;stop-color:#4db0e7"
         offset="0.121526"
         id="stop17-1" /><stop
         style="stop-opacity:1;stop-color:#48a4e0"
         offset="0.46034"
         id="stop18-6" /><stop
         style="stop-opacity:1;stop-color:#272f67"
         offset="0.927083"
         id="stop19-8" /><stop
         style="stop-opacity:1;stop-color:#272f67"
         offset="1"
         id="stop20-5" /></radialGradient><clipPath
       clipPathUnits="userSpaceOnUse"
       id="clipPath22-7"><path
         d="M 0,595.276 H 841.89 V 0 H 0 Z"
         transform="translate(-419.73181,-204.96871)"
         id="path22-6" /></clipPath><clipPath
       clipPathUnits="userSpaceOnUse"
       id="clipPath24-1"><path
         d="M 0,595.276 H 841.89 V 0 H 0 Z"
         transform="translate(-438.05741,-214.1474)"
         id="path24-8" /></clipPath><clipPath
       clipPathUnits="userSpaceOnUse"
       id="clipPath26-9"><path
         d="M 0,595.276 H 841.89 V 0 H 0 Z"
         transform="translate(-451.73761,-196.5458)"
         id="path26-2" /></clipPath><clipPath
       clipPathUnits="userSpaceOnUse"
       id="clipPath28-7"><path
         d="M 0,595.276 H 841.89 V 0 H 0 Z"
         transform="translate(-481.00471,-196.0058)"
         id="path28-9" /></clipPath><clipPath
       clipPathUnits="userSpaceOnUse"
       id="clipPath30-5"><path
         d="M 0,595.276 H 841.89 V 0 H 0 Z"
         transform="translate(-503.10821,-209.1083)"
         id="path30-4" /></clipPath><clipPath
       clipPathUnits="userSpaceOnUse"
       id="clipPath32-3"><path
         d="M 0,595.276 H 841.89 V 0 H 0 Z"
         transform="translate(-526.25621,-214.1474)"
         id="path32-1" /></clipPath><clipPath
       clipPathUnits="userSpaceOnUse"
       id="clipPath34-2"><path
         d="M 0,595.276 H 841.89 V 0 H 0 Z"
         transform="translate(-555.55841,-200.93741)"
         id="path34-3" /></clipPath><clipPath
       clipPathUnits="userSpaceOnUse"
       id="clipPath36-3"><path
         d="M 0,595.276 H 841.89 V 0 H 0 Z"
         transform="translate(-579.60631,-194.38621)"
         id="path36-4" /></clipPath><clipPath
       clipPathUnits="userSpaceOnUse"
       id="clipPath38-1"><path
         d="M 0,595.276 H 841.89 V 0 H 0 Z"
         transform="translate(-603.51062,-214.1474)"
         id="path38-1" /></clipPath><clipPath
       clipPathUnits="userSpaceOnUse"
       id="clipPath40-3"><path
         d="M 0,595.276 H 841.89 V 0 H 0 Z"
         transform="translate(-631.84061,-200.8652)"
         id="path40-8" /></clipPath><clipPath
       clipPathUnits="userSpaceOnUse"
       id="clipPath42-7"><path
         d="M 0,595.276 H 841.89 V 0 H 0 Z"
         transform="translate(-661.75622,-200.90131)"
         id="path42-4" /></clipPath><clipPath
       clipPathUnits="userSpaceOnUse"
       id="clipPath44-2"><path
         d="M 0,595.276 H 841.89 V 0 H 0 Z"
         transform="translate(-679.28942,-209.1083)"
         id="path44-7" /></clipPath><clipPath
       clipPathUnits="userSpaceOnUse"
       id="clipPath46-7"><path
         d="M 0,595.276 H 841.89 V 0 H 0 Z"
         transform="translate(-711.14832,-196.86961)"
         id="path46-9" /></clipPath></defs><g
     id="g1"
     inkscape:groupmode="layer"
     inkscape:label="1"
     transform="matrix(0.26458333,0,0,0.26458334,-31.958042,-54.896925)"><g
       id="group-MC0"
       transform="translate(0.33727699,-17.454254)"
       inkscape:export-filename="logo.png"
       inkscape:export-xdpi="360"
       inkscape:export-ydpi="360"><path
         id="path2"
         d="m 0,0 c -28.469,0 -40.192,17.07 -40.611,45.886 0,0.918 1.047,1.836 2.093,1.836 h 6.908 c 1.047,0 2.094,-0.918 2.094,-1.836 C -29.098,23.31 -23.027,8.443 0,8.443 c 23.864,0 29.516,15.418 29.516,39.279 l 0.209,40.197 -0.419,41.115 c 0,0.918 1.047,1.835 2.093,1.835 h 7.745 c 1.048,0 2.094,-0.917 2.094,-1.835 L 40.819,87.919 V 47.722 C 41.029,16.886 29.097,0 0,0"
         style="fill:#245979;fill-opacity:1;fill-rule:nonzero;stroke:none"
         transform="matrix(1.3333333,0,0,-1.3333333,441.4968,475.00947)"
         clip-path="url(#clipPath3-2)" /><path
         id="path4"
         d="m 0,0 c 34.121,0 55.682,21.658 55.682,57.817 0,36.159 -21.561,57.818 -55.682,57.818 -34.331,0 -55.473,-21.842 -55.473,-57.818 C -55.473,21.842 -33.912,0 0,0 m 0,-8.443 c -40.611,0 -67.405,25.513 -67.405,66.26 0,41.115 26.794,66.261 67.614,66.261 40.61,0 67.195,-24.963 67.195,-66.261 C 67.404,16.886 40.4,-8.443 0,-8.443"
         style="fill:#245979;fill-opacity:1;fill-rule:nonzero;stroke:none"
         transform="matrix(1.3333333,0,0,-1.3333333,609.5136,463.26253)"
         clip-path="url(#clipPath5-5)" /><path
         id="path6"
         d="m 0,0 c -1.046,0 -2.093,0.918 -2.093,1.836 l 0.628,67.728 -0.628,57.084 c 0,0.918 1.047,1.836 2.093,1.836 h 7.536 c 1.047,0 2.093,-0.918 2.093,-1.836 L 9.002,69.748 9.629,8.259 h 68.033 c 1.047,0 2.094,-0.918 2.094,-1.835 V 1.836 C 79.756,0.918 78.709,0 77.662,0 Z"
         style="fill:#245979;fill-opacity:1;fill-rule:nonzero;stroke:none"
         transform="matrix(1.3333333,0,0,-1.3333333,729.52147,471.8284)"
         clip-path="url(#clipPath7-1)" /><path
         id="path8"
         d="m 0,0 c -1.047,0 -2.093,0.918 -2.093,1.836 l 0.628,67.728 -0.628,57.084 c 0,0.918 1.046,1.836 2.093,1.836 h 7.536 c 1.047,0 2.093,-0.918 2.093,-1.836 L 9.002,69.748 9.629,8.259 h 68.033 c 1.047,0 2.094,-0.918 2.094,-1.835 V 1.836 C 79.756,0.918 78.709,0 77.662,0 Z"
         style="fill:#245979;fill-opacity:1;fill-rule:nonzero;stroke:none"
         transform="matrix(1.3333333,0,0,-1.3333333,857.62427,471.8284)"
         clip-path="url(#clipPath9-1)" /><path
         id="path10"
         d="m 0,0 c -1.047,0 -2.094,0.918 -2.094,1.836 l 0.629,64.425 -0.629,60.387 c 0,0.918 1.047,1.836 2.094,1.836 h 7.536 c 1.046,0 2.093,-0.918 2.093,-1.836 L 9.001,66.261 9.629,1.836 C 9.629,0.918 8.582,0 7.536,0 Z"
         style="fill:#245979;fill-opacity:1;fill-rule:nonzero;stroke:none"
         transform="matrix(1.3333333,0,0,-1.3333333,987.12227,471.8284)"
         clip-path="url(#clipPath11-5)" /><path
         id="path15"
         d="m 91.44,241.903 c 7.41,-43.803 51.118,-76.461 97.63,-72.94 v 0 c 46.5,3.532 78.202,41.908 70.802,85.711 v 0 c 10.858,-64.268 -100.423,-87.95 -113.848,-8.63 v 0 c -10.876,64.317 85.469,66.02 -8.848,180.528 v 0 C 206.408,334.947 77.221,325.949 91.44,241.903"
         transform="matrix(1.3333333,0,0,-1.3333333,0,793.70133)"
         style="fill:url(#radialGradient15-7);stroke:none" /><path
         id="path20"
         d="m 162.821,275.737 c -26.055,-37.367 41.5,-93.719 74.716,-30.24 v 0 c 15.714,30.051 7.389,102.92 -92.249,179.004 v 0 c 71.321,-59.724 39.241,-117.608 17.533,-148.764"
         transform="matrix(1.3333333,0,0,-1.3333333,0,793.70133)"
         style="fill:url(#radialGradient20-2);stroke:none" /><path
         id="path21"
         d="m 0,0 c 0,4.392 -1.584,5.939 -5.759,5.939 h -3.672 l -2.484,-15.838 h 3.456 C -2.304,-9.899 0,-5.363 0,0 m -14.074,10.619 h 9.394 c 6.659,0 10.115,-3.456 10.115,-10.403 0,-8.387 -4.859,-14.794 -13.822,-14.794 h -9.683 z"
         style="fill:#245979;fill-opacity:1;fill-rule:nonzero;stroke:none"
         transform="matrix(1.3333333,0,0,-1.3333333,559.6424,520.40973)"
         clip-path="url(#clipPath22-7)" /><path
         id="path23"
         d="m 0,0 c 0,1.584 1.368,2.808 2.879,2.808 1.548,0 2.88,-1.224 2.88,-2.808 0,-1.583 -1.332,-2.843 -2.88,-2.843 C 1.368,-2.843 0,-1.583 0,0 M -0.504,-5.039 H 4.751 L 1.8,-23.757 h -5.256 z"
         style="fill:#245979;fill-opacity:1;fill-rule:nonzero;stroke:none"
         transform="matrix(1.3333333,0,0,-1.3333333,584.07653,508.17147)"
         clip-path="url(#clipPath24-1)" /><path
         id="path25"
         d="m 0,0 h 4.715 c -0.072,-1.764 1.008,-2.484 2.988,-2.484 2.016,0 3.204,0.756 3.204,2.016 0,0.792 -0.505,1.26 -1.944,1.548 l -2.7,0.576 C 2.771,2.448 1.62,4.211 1.62,6.551 c 0,4.068 3.671,6.371 8.422,6.371 4.968,0 7.344,-2.447 6.696,-6.479 h -4.356 c 0.108,1.836 -1.115,2.448 -2.879,2.448 -1.8,0 -2.844,-0.648 -2.844,-1.692 0,-0.864 0.648,-1.368 2.196,-1.764 l 2.952,-0.647 c 2.555,-0.613 4.607,-1.692 4.607,-4.68 0,-4.283 -4.176,-6.623 -9.287,-6.623 C 2.16,-6.515 -0.648,-4.355 0,0"
         style="fill:#245979;fill-opacity:1;fill-rule:nonzero;stroke:none"
         transform="matrix(1.3333333,0,0,-1.3333333,602.3168,531.64027)"
         clip-path="url(#clipPath26-9)" /><path
         id="path27"
         d="m 0,0 1.44,9.071 h -3.168 l 0.612,4.032 h 3.204 l 0.756,4.823 H 8.099 L 7.307,13.103 h 3.708 L 10.403,9.071 H 6.659 L 5.327,0.756 C 5.111,-0.684 5.543,-1.656 7.163,-1.656 H 8.819 L 8.171,-5.759 C 7.163,-5.867 6.227,-5.867 5.219,-5.867 1.512,-5.867 -0.648,-4.175 0,0"
         style="fill:#245979;fill-opacity:1;fill-rule:nonzero;stroke:none"
         transform="matrix(1.3333333,0,0,-1.3333333,641.3396,532.36027)"
         clip-path="url(#clipPath28-7)" /><path
         id="path29"
         d="m 0,0 h 5.255 l -0.72,-4.536 h 0.216 c 1.08,2.736 3.06,4.716 6.047,4.716 0.432,0 0.9,-0.036 1.44,-0.18 l -0.719,-4.428 c -0.577,0.073 -1.044,0.108 -1.477,0.108 -2.843,0 -5.687,-1.547 -6.371,-5.795 l -1.367,-8.603 h -5.256 z"
         style="fill:#245979;fill-opacity:1;fill-rule:nonzero;stroke:none"
         transform="matrix(1.3333333,0,0,-1.3333333,670.81093,514.89027)"
         clip-path="url(#clipPath30-5)" /><path
         id="path31"
         d="m 0,0 c 0,1.584 1.368,2.808 2.879,2.808 1.548,0 2.88,-1.224 2.88,-2.808 0,-1.583 -1.332,-2.843 -2.88,-2.843 C 1.368,-2.843 0,-1.583 0,0 M -0.504,-5.039 H 4.751 L 1.8,-23.757 h -5.256 z"
         style="fill:#245979;fill-opacity:1;fill-rule:nonzero;stroke:none"
         transform="matrix(1.3333333,0,0,-1.3333333,701.67493,508.17147)"
         clip-path="url(#clipPath32-3)" /><path
         id="path33"
         d="m 0,0 c 0,2.879 -1.62,4.175 -3.78,4.175 -3.239,0 -5.327,-3.167 -5.327,-6.443 0,-2.987 1.728,-4.283 3.779,-4.283 C -2.052,-6.551 0,-3.42 0,0 m -9.863,-7.919 -0.396,-2.628 h -5.255 l 3.995,25.197 h 5.256 L -7.739,5.507 c 0.936,1.62 3.276,3.024 6.047,3.024 3.42,0 6.767,-2.232 6.767,-7.451 0,-6.335 -3.995,-11.987 -9.826,-11.987 -2.808,0 -4.608,1.368 -5.112,2.988"
         style="fill:#245979;fill-opacity:1;fill-rule:nonzero;stroke:none"
         transform="matrix(1.3333333,0,0,-1.3333333,740.74453,525.7848)"
         clip-path="url(#clipPath34-2)" /><path
         id="path35"
         d="m 0,0 c 2.196,0 3.959,1.26 4.463,4.211 l 1.656,10.511 h 5.256 L 8.423,-3.996 H 3.167 l 0.612,3.924 H 3.527 c -0.575,-1.764 -2.699,-4.283 -6.515,-4.283 -3.707,0 -6.155,2.339 -5.399,7.199 l 1.872,11.878 H -1.26 L -2.916,4.104 C -3.419,1.26 -2.196,0 0,0"
         style="fill:#245979;fill-opacity:1;fill-rule:nonzero;stroke:none"
         transform="matrix(1.3333333,0,0,-1.3333333,772.8084,534.51973)"
         clip-path="url(#clipPath36-3)" /><path
         id="path37"
         d="m 0,0 c 0,1.584 1.368,2.808 2.879,2.808 1.548,0 2.88,-1.224 2.88,-2.808 0,-1.583 -1.332,-2.843 -2.88,-2.843 C 1.368,-2.843 0,-1.583 0,0 M -0.504,-5.039 H 4.751 L 1.8,-23.757 h -5.256 z"
         style="fill:#245979;fill-opacity:1;fill-rule:nonzero;stroke:none"
         transform="matrix(1.3333333,0,0,-1.3333333,804.6808,508.17147)"
         clip-path="url(#clipPath38-1)" /><path
         id="path39"
         d="m 0,0 c 0,2.952 -1.692,4.248 -3.852,4.248 -3.167,0 -5.219,-3.132 -5.219,-6.516 0,-2.915 1.584,-4.211 3.744,-4.211 C -2.087,-6.479 0,-3.312 0,0 m -14.11,-3.312 c 0,6.408 3.995,11.915 9.683,11.915 2.844,0 4.679,-1.368 5.183,-2.988 l 1.44,9.107 H 7.451 L 3.456,-10.475 H -1.8 l 0.432,2.664 c -0.936,-1.62 -3.275,-3.023 -6.047,-3.023 -3.456,0 -6.695,2.195 -6.695,7.522"
         style="fill:#245979;fill-opacity:1;fill-rule:nonzero;stroke:none"
         transform="matrix(1.3333333,0,0,-1.3333333,842.45413,525.88107)"
         clip-path="url(#clipPath40-3)" /><path
         id="path41"
         d="m 0,0 c 0,2.952 -1.548,4.211 -3.635,4.211 -3.492,0 -5.292,-3.347 -5.292,-6.515 0,-2.951 1.548,-4.211 3.635,-4.211 C -1.8,-6.515 0,-3.167 0,0 m -13.93,-2.844 c 0,6.192 4.427,11.411 10.942,11.411 4.284,0 7.991,-2.376 7.991,-8.027 0,-6.191 -4.427,-11.411 -10.942,-11.411 -4.284,0 -7.991,2.376 -7.991,8.027"
         style="fill:#245979;fill-opacity:1;fill-rule:nonzero;stroke:none"
         transform="matrix(1.3333333,0,0,-1.3333333,882.3416,525.83293)"
         clip-path="url(#clipPath42-7)" /><path
         id="path43"
         d="m 0,0 h 5.255 l -0.72,-4.536 h 0.216 c 1.08,2.736 3.06,4.716 6.047,4.716 0.432,0 0.9,-0.036 1.44,-0.18 l -0.719,-4.428 c -0.577,0.073 -1.044,0.108 -1.477,0.108 -2.843,0 -5.687,-1.547 -6.371,-5.795 l -1.367,-8.603 h -5.256 z"
         style="fill:#245979;fill-opacity:1;fill-rule:nonzero;stroke:none"
         transform="matrix(1.3333333,0,0,-1.3333333,905.7192,514.89027)"
         clip-path="url(#clipPath44-2)" /><path
         id="path45"
         d="M 0,0 0.36,2.16 C -0.18,1.584 -1.116,1.512 -2.124,1.332 L -4.5,0.936 C -5.975,0.684 -6.947,0 -6.947,-1.26 c 0,-1.044 0.612,-1.835 2.34,-1.835 2.447,0 4.355,1.619 4.607,3.095 m -12.311,-2.304 c 0,3.636 2.88,5.616 7.488,6.3 l 3.311,0.54 c 1.728,0.252 2.304,0.611 2.484,1.403 l 0.072,0.433 c 0.324,1.619 -0.54,2.411 -2.556,2.411 -1.728,0 -3.203,-0.54 -3.528,-2.376 L -5.111,5.976 h -4.932 l 0.108,0.863 c 0.576,3.672 3.276,5.76 9.071,5.76 5.651,0 7.739,-2.016 7.091,-6.084 L 4.139,-6.479 h -5.003 l 0.54,3.312 H -0.54 c -0.54,-1.008 -2.412,-3.672 -6.623,-3.672 -2.7,0 -5.148,1.08 -5.148,4.535"
         style="fill:#245979;fill-opacity:1;fill-rule:nonzero;stroke:none"
         transform="matrix(1.3333333,0,0,-1.3333333,948.19773,531.20853)"
         clip-path="url(#clipPath46-7)" /></g></g></svg>
